<?xml version="1.0" standalone="no"?>
<!DOCTYPE svg PUBLIC "-//W3C//DTD SVG 1.1//EN" "http://www.w3.org/Graphics/SVG/1.1/DTD/svg11.dtd" >
<svg xmlns="http://www.w3.org/2000/svg">
<metadata>Generated by IcoMoon</metadata>
<defs>
<font id="mcdrogerie" horiz-adv-x="1024">
<font-face units-per-em="1024" ascent="960" descent="-64" />
<missing-glyph horiz-adv-x="1024" />
<glyph unicode="&#x20;" horiz-adv-x="0" d="" />
<glyph unicode="&#xe018;" glyph-name="bargraph" horiz-adv-x="1152" d="M832 624v-640c0-5.632 1.152-10.976 2.944-16h-101.888c1.792 5.024 2.944 10.368 2.944 16v928c0 26.464-21.536 48-48 48h-224c-26.464 0-48-21.536-48-48v-928c0-5.632 1.152-10.976 2.944-16h-101.888c1.792 5.024 2.944 10.368 2.944 16v352c0 26.464-21.536 48-48 48h-224c-26.464 0-48-21.536-48-48v-352c0-26.464 21.536-48 48-48h1056c26.464 0 48 21.536 48 48v640c0 26.464-21.536 48-48 48h-224c-26.464 0-48-21.536-48-48zM160-32h-112c-8.8 0-16 7.168-16 16v352c0 8.832 7.2 16 16 16h224c8.8 0 16-7.168 16-16v-352c0-8.832-7.2-16-16-16h-112zM464-32c-8.8 0-16 7.168-16 16v928c0 8.832 7.2 16 16 16h224c8.8 0 16-7.168 16-16v-928c0-8.832-7.2-16-16-16h-224zM1120 624v-640c0-8.832-7.2-16-16-16h-224c-8.8 0-16 7.168-16 16v640c0 8.832 7.2 16 16 16h224c8.8 0 16-7.168 16-16z" />
<glyph unicode="&#xe023;" glyph-name="trophy" horiz-adv-x="1088" d="M816 928c8.832 0 16 7.168 16 16s-7.168 16-16 16h-544c-8.832 0-16-7.168-16-16s7.168-16 16-16h544zM816 896h-608c-105.056 0-154.016-37.312-176.608-68.608-27.648-38.4-32.832-89.696-14.592-144.448 28.224-84.672 123.072-186.4 181.376-231.584 2.944-2.272 6.4-3.36 9.824-3.36 4.768 0 9.504 2.112 12.672 6.208 5.408 6.976 4.128 17.024-2.848 22.464-53.568 41.472-144.8 138.944-170.624 216.416-14.944 44.704-11.328 85.76 10.176 115.584 26.080 36.192 78.144 55.328 150.624 55.328h48v-304c0-215.232 213.536-339.232 257.152-362.304-0.672-1.792-1.152-3.68-1.152-5.696v-80c0-8.832 7.168-16 16-16s16 7.168 16 16v80c0 1.856-0.48 3.584-1.056 5.248 48.448 22.784 289.056 146.752 289.056 362.752v304h48c72.48 0 124.544-19.136 150.624-55.328 21.504-29.824 25.12-70.88 10.176-115.616-20.16-60.512-120.608-177.696-170.624-216.416-6.976-5.408-8.256-15.456-2.848-22.464 3.168-4.064 7.904-6.176 12.672-6.176 3.424 0 6.88 1.088 9.824 3.328 55.424 42.944 158.752 163.808 181.376 231.584 18.24 54.752 13.056 106.048-14.592 144.448-22.592 31.328-71.552 68.64-176.608 68.64h-64zM800 560c0-194.976-228.864-313.728-271.552-334.176-39.296 21.28-240.448 139.744-240.448 334.176v304h512v-304zM352 64c-36.512 0-64-27.52-64-64v-48c0-8.832 7.168-16 16-16h448c8.832 0 16 7.168 16 16v45.6c0 37.216-28.128 66.4-64 66.4h-352zM736-2.4v-29.6h-416v32c0 18.848 13.152 32 32 32h352c18.24 0 32-14.784 32-34.4z" />
<glyph unicode="&#xe055;" glyph-name="clock1" d="M512-64c282.304 0 512 229.696 512 512s-229.696 512-512 512-512-229.696-512-512 229.696-512 512-512zM512 928c264.672 0 480-215.328 480-480s-215.328-480-480-480-480 215.328-480 480 215.328 480 480 480zM641.952 263.424c3.136-3.136 7.232-4.672 11.328-4.672s8.192 1.568 11.328 4.672c6.24 6.24 6.24 16.384 0 22.624l-152.608 152.576v223.168c0 8.832-7.168 16-16 16s-16-7.168-16-16v-229.792c0-4.256 1.696-8.32 4.672-11.328l157.28-157.248zM96 448c0-17.673 14.327-32 32-32s32 14.327 32 32c0 17.673-14.327 32-32 32s-32-14.327-32-32zM864 448c0-17.673 14.327-32 32-32s32 14.327 32 32c0 17.673-14.327 32-32 32s-32-14.327-32-32zM480 832c0-17.673 14.327-32 32-32s32 14.327 32 32c0 17.673-14.327 32-32 32s-32-14.327-32-32zM480 64c0-17.673 14.327-32 32-32s32 14.327 32 32c0 17.673-14.327 32-32 32s-32-14.327-32-32zM224 704c0-17.673 14.327-32 32-32s32 14.327 32 32c0 17.673-14.327 32-32 32s-32-14.327-32-32zM736 192c0-17.673 14.327-32 32-32s32 14.327 32 32c0 17.673-14.327 32-32 32s-32-14.327-32-32zM768 704c0-17.673 14.327-32 32-32s32 14.327 32 32c0 17.673-14.327 32-32 32s-32-14.327-32-32zM224 192c0-17.673 14.327-32 32-32s32 14.327 32 32c0 17.673-14.327 32-32 32s-32-14.327-32-32z" />
<glyph unicode="&#xe059;" glyph-name="alarmclock1" horiz-adv-x="960" d="M480 896c-247.040 0-448-200.96-448-448s200.96-448 448-448 448 200.96 448 448-200.96 448-448 448zM480 32c-229.376 0-416 186.624-416 416s186.624 416 416 416 416-186.624 416-416-186.624-416-416-416zM240 960c-132.352 0-240-107.648-240-240v-33.984c0-8.832 7.168-16 16-16s16 7.136 16 16v33.984c0 114.688 93.312 208 208 208h28c8.832 0 16 7.168 16 16s-7.168 16-16 16h-28zM716 960h-28c-8.832 0-16-7.168-16-16s7.168-16 16-16h28c114.688 0 208-93.312 208-208v-33.984c0-8.832 7.168-16 16-16s16 7.168 16 16v33.984c0 132.352-107.648 240-240 240zM480 438.624v223.168c0 8.832-7.168 16-16 16s-16-7.168-16-16v-229.792c0-4.256 1.696-8.32 4.672-11.328l157.248-157.248c3.136-3.136 7.232-4.672 11.328-4.672s8.192 1.568 11.328 4.672c6.24 6.24 6.24 16.384 0 22.624l-152.576 152.576zM60.8-57.6l96 128c5.28 7.072 3.84 17.088-3.232 22.4-7.040 5.248-17.056 3.84-22.4-3.232l-96-128c-5.28-7.072-3.84-17.088 3.232-22.4 2.88-2.144 6.272-3.168 9.6-3.168 4.832 0 9.664 2.208 12.8 6.4zM828.8 89.6c-5.344 7.104-15.328 8.48-22.4 3.232-7.072-5.312-8.512-15.328-3.232-22.4l96-128c3.168-4.192 7.968-6.4 12.8-6.4 3.328 0 6.72 1.024 9.6 3.2 7.072 5.312 8.512 15.328 3.232 22.4l-96 127.968z" />
<glyph unicode="&#xe8cc;" glyph-name="basket" horiz-adv-x="830" d="M142.336 167.424q34.816-1.024 57.344-23.552t22.528-56.832-22.528-56.832-56.832-22.528-56.832 22.528-22.528 56.832 22.528 56.832 56.32 23.552zM685.056 167.424q34.816-1.024 56.32-23.552t21.504-56.832-21.504-56.832-56.32-22.528-57.344 22.528-22.528 56.832 22.528 56.832 57.344 23.552zM195.584 769.536h578.56q28.672 0 42.496-14.336t13.824-36.864v-238.592q0-21.504-13.312-35.328t-33.792-15.872l-517.12-58.368q-31.744-7.168-32.768-31.744t35.84-27.648h489.472q41.984-5.12 41.984-41.984t-41.984-41.984h-499.712q-86.016 6.144-108.544 70.656t41.984 118.784l44.032 33.792-158.72 347.136h-77.824q-45.056 6.144-45.056 46.080t45.056 46.080h91.136q33.792 0 48.64-15.36t24.064-39.936zM548.864 697.856h-133.12l27.648-87.040h125.952zM229.376 697.856l39.936-87.040h129.024l-28.672 87.040h-140.288zM340.992 451.072l102.4 10.24-33.792 103.424h-121.856zM487.424 466.432l115.712 11.264-25.6 87.040h-121.856zM760.832 496.128v68.608h-136.192l20.48-79.872zM760.832 610.816v87.040h-165.888l19.456-87.040h146.432z" />
<glyph unicode="&#xe900;" glyph-name="plus" d="M511.872 960c-282.721 0-511.872-229.15-511.872-512.128s229.15-511.872 511.872-511.872 511.872 229.15 511.872 511.872-228.894 512.128-511.872 512.128zM821.251 354.059h-215.053v-215.053h-188.395v215.053h-215.053v188.139h215.053v214.796h188.139v-215.053h215.053v-187.883z" />
<glyph unicode="&#xe901;" glyph-name="mcdeogerie-logo" horiz-adv-x="6687" d="M2309.602 517.941c56.378 0 98.13-27.127 120.776-79.023h115.35c-23.589 116.058-113.463 185.174-234.239 185.174-66.285 0-126.201-21.702-172.436-63.455-33.836-30.383-60.149-68.457-76.261-111.513l-0.64-1.95 62.747 323.17h-175.031l-353.128-472.724 47.65 472.488h-169.133l-443.002-645.16h136.581l339.446 503.154-59.444-503.154h147.431l375.302 502.918-100.253-502.918h128.324l45.291 233.531c-0.236-3.774-0.236-7.548-0.236-11.323 0-137.996 97.187-234.947 235.89-234.947 121.719 0 215.132 67.229 254.054 183.287h-120.776c-29.958-50.716-73.598-77.136-127.853-77.136-76.193 0-128.796 53.547-128.796 130.683-0.236 100.725 64.398 168.897 152.385 168.897zM3480.090 626.687h-3.538c-72.654 0-125.258-24.533-167.010-79.023l12.738 64.398h-103.556l-94.356-487.349h117.945l48.122 246.034c20.051 100.725 57.085 139.883 167.954 141.534zM5236.53 626.687h-3.538c-72.654 0-125.258-24.533-167.010-79.023l12.738 64.398h-103.556l-94.356-487.349h117.945l48.122 246.034c20.051 100.725 57.085 139.883 167.954 141.534zM5394.812 770.108h-112.756l-20.758-106.151h112.52l20.994 106.151zM5556.633 218.361c-67.229 0-110.633 37.271-125.258 108.981h385.681c3.043 18.761 5 40.693 5.419 63.002l0.007 0.453c0 137.996-97.187 234.239-235.89 234.239-68.172 0-127.853-22.645-174.323-64.398-39.808-35.429-69.368-81.562-84.203-133.885l-0.482-1.988 36.327 187.533h-112.52l-94.356-487.349h112.52l49.301 254.762c-1.166-9.661-1.85-20.888-1.887-32.267v-0.050c0-137.052 98.13-235.89 234.947-235.89 115.35 0 204.281 58.973 248.628 167.010h-125.022c-31.845-41.045-70.767-60.152-118.889-60.152zM5577.391 518.885c67.229 0 114.407-35.384 130.683-96.243h-264.905c23.589 60.86 74.305 96.243 134.222 96.243zM4772.298 278.277c-31.845-40.809-70.767-59.916-118.889-59.916-67.229 0-110.633 37.271-125.258 108.981h385.681c3.043 18.761 5 40.693 5.419 63.002l0.007 0.453c0 137.996-97.187 234.239-235.89 234.239-68.172 0-127.853-22.645-174.323-64.398-38.188-34.202-66.973-78.152-82.49-127.953l-0.543-2.023 36.327 181.871h-116.058l-11.795-62.511c-41.753 48.122-98.13 73.598-162.528 73.598-86.336 0-159.698-37.271-208.763-105.207-16.628-22.696-30.455-48.861-40.181-76.94l-0.628-2.083c-19.579 111.812-109.453 188.005-231.88 188.005-68.172 0-127.853-21.702-175.267-63.455-62.511-55.434-96.243-131.627-96.243-216.076 0-136.109 97.187-234.947 234.947-234.947 76.193 0 144.365 27.127 192.487 77.136 29.697 30.732 52.427 68.393 65.518 110.311l0.531 1.973c19.107-115.586 105.679-188.476 222.916-188.476 50.716 0 91.761 14.625 125.258 45.291-13.682-91.761-50.009-127.853-131.627-127.853-59.916 0-99.782 20.758-120.776 62.511h-117.002c14.625-93.413 106.151-157.811 231.408-157.811 139.883 0 215.132 58.973 240.608 183.287l51.66 258.3c-0.944-9.672-1.415-19.579-1.415-29.486 0-137.052 98.13-235.89 234.947-235.89 115.35 0 204.281 58.973 248.628 167.010h-124.786zM4674.403 518.885c67.229 0 114.407-35.384 130.683-96.243h-264.905c23.589 60.86 74.305 96.243 134.222 96.243zM3659.131 219.304c-74.305 0-126.201 53.547-126.201 129.74 0 101.669 67.229 171.492 150.734 171.492 79.023 0 131.627-53.547 131.627-133.514 0-96.007-70.059-167.718-156.159-167.718zM4149.547 218.361c-77.136 0-127.853 54.491-127.853 135.165 0 94.356 72.654 167.010 155.216 167.010 71.711 0 126.201-53.547 126.201-132.57-0.236-97.894-70.059-169.605-153.565-169.605zM2865.36 770.108h-188.712l-124.314-645.396h242.259c223.152 0 368.461 145.308 368.461 364.922 0 176.21-107.094 280.474-297.694 280.474zM2767.23 226.617h-68.88l86.336 440.171h53.547c123.371 0 193.194-68.88 193.194-187.769 0-148.139-109.925-252.403-264.197-252.403zM5813.518 111.267h88.223l18.399 94.828h-88.459l-18.164-94.828zM6550.911 497.419c-32.553 0-62.275-10.615-89.874-33.261l29.722 150.026h-88.459l-71.711-369.876h-84.213c-23.353-39.63-57.321-60.152-99.782-60.152-59.444 0-100.489 41.753-100.489 101.905 0 78.551 50.245 131.627 118.889 131.627 43.876 0 76.428-21.23 94.12-61.567h89.874c-18.399 90.582-88.459 144.365-182.579 144.365-51.66 0-98.366-16.984-134.457-49.537-45.261-40.613-73.604-99.295-73.604-164.597 0-0.6 0.002-1.199 0.007-1.798l-0.001 0.092c0-107.566 75.721-183.287 183.994-183.287 79.731 0 143.657 37.035 180.22 102.612l-17.928-92.705h88.459l36.799 191.071c15.569 78.551 46.706 117.473 104.028 117.473 38.922 0 59.444-21.23 59.444-61.567-0.087-16.338-1.887-32.207-5.229-47.499l0.275 1.5-38.922-200.979h91.29l33.261 172.672c9.2 47.414 12.738 77.136 12.738 89.874-0.236 80.439-46.706 123.607-135.873 123.607zM471.073 960c-260.187 0-471.073-210.886-471.073-471.309s210.886-471.073 471.073-471.073 471.073 210.886 471.073 471.073-210.65 471.309-471.073 471.309zM755.793 402.355h-197.912v-197.912h-173.379v197.912h-197.912v173.144h197.912v197.676h173.144v-197.912h197.912v-172.908z" />
<glyph unicode="&#xe902;" glyph-name="uniE901" d="M26 346q-5 0-9.5 1.5t-8.5 4.5q-7 7-7.5 17.5t6.5 18.5l452 500q10 12 24 18t29 6v0 0q15 0 29-6t24-18l452-500q8-8 7-18.5t-8-17.5q-8-7-18.5-6.5t-17.5 8.5l-453 500q-3 3-7 5t-8 2-8-2-7-5l-452-500q-4-4-9-6t-10-2v0zM794-64h-564q-31 0-53.5 22.5t-22.5 54.5v409q0 11 7.5 18.5t17.5 7.5q11 0 18.5-7.5t7.5-18.5v-409q0-11 7.5-18.5t17.5-7.5h564q10 0 17.5 7.5t7.5 18.5v409q0 11 7.5 18.5t18.5 7.5q10 0 17.5-7.5t7.5-18.5v-409q0-32-22.5-54.5t-53.5-22.5v0z" />
<glyph unicode="&#xe903;" glyph-name="alarmclock, clock" horiz-adv-x="960" d="M480 896c-247.040 0-448-200.96-448-448s200.96-448 448-448 448 200.96 448 448-200.96 448-448 448zM480 32c-229.376 0-416 186.624-416 416s186.624 416 416 416 416-186.624 416-416-186.624-416-416-416zM240 960c-132.352 0-240-107.648-240-240v-33.984c0-8.832 7.168-16 16-16s16 7.136 16 16v33.984c0 114.688 93.312 208 208 208h28c8.832 0 16 7.168 16 16s-7.168 16-16 16h-28zM716 960h-28c-8.832 0-16-7.168-16-16s7.168-16 16-16h28c114.688 0 208-93.312 208-208v-33.984c0-8.832 7.168-16 16-16s16 7.168 16 16v33.984c0 132.352-107.648 240-240 240zM480 438.624v223.168c0 8.832-7.168 16-16 16s-16-7.168-16-16v-229.792c0-4.256 1.696-8.32 4.672-11.328l157.248-157.248c3.136-3.136 7.232-4.672 11.328-4.672s8.192 1.568 11.328 4.672c6.24 6.24 6.24 16.384 0 22.624l-152.576 152.576zM60.8-57.6l96 128c5.28 7.072 3.84 17.088-3.232 22.4-7.040 5.248-17.056 3.84-22.4-3.232l-96-128c-5.28-7.072-3.84-17.088 3.232-22.4 2.88-2.144 6.272-3.168 9.6-3.168 4.832 0 9.664 2.208 12.8 6.4zM828.8 89.6c-5.344 7.104-15.328 8.48-22.4 3.232-7.072-5.312-8.512-15.328-3.232-22.4l96-128c3.168-4.192 7.968-6.4 12.8-6.4 3.328 0 6.72 1.024 9.6 3.2 7.072 5.312 8.512 15.328 3.232 22.4l-96 127.968z" />
<glyph unicode="&#xe904;" glyph-name="check_box_outline_blank" d="M810 810.667c46 0 86-40 86-86v-596c0-46-40-86-86-86h-596c-46 0-86 40-86 86v596c0 46 40 86 86 86h596zM810 724.667h-596v-596h596v596z" />
<glyph unicode="&#xe905;" glyph-name="check_box" d="M426 212.667l384 384-60 62-324-324-152 152-60-60zM810 810.667c48 0 86-40 86-86v-596c0-46-38-86-86-86h-596c-48 0-86 40-86 86v596c0 46 38 86 86 86h596z" />
<glyph unicode="&#xe906;" glyph-name="thumbs-o-down" horiz-adv-x="878" d="M146.286 694.857c0 20-16.571 36.571-36.571 36.571s-36.571-16.571-36.571-36.571 16.571-36.571 36.571-36.571 36.571 16.571 36.571 36.571zM804.571 365.714c0 21.143-16 72.571-42.857 73.143 12 13.714 20 40.571 20 58.857 0 26.857-10.857 49.714-30.286 68 6.857 12 10.286 25.714 10.286 39.429 0 26.286-13.143 58.857-37.143 72 1.714 10.286 2.857 21.143 2.857 32 0 66.857-42.286 95.429-105.714 95.429h-73.143c-67.429 0-132.571-20-195.429-41.714-30.857-10.857-83.429-31.429-115.429-31.429h-18.286v-365.714h18.286c45.143 0 113.143-97.714 138.857-130.857 14.286-17.714 28-35.429 44-52 55.429-58.286 36.571-145.714 73.143-182.857 78.286 0 91.429 42.857 91.429 109.714 0 67.429-54.857 116-54.857 182.857h201.143c38.286 0 73.143 34.286 73.143 73.143zM877.714 365.143c0-78.857-67.429-145.714-146.286-145.714h-100.571c17.143-35.429 27.429-69.714 27.429-109.714 0-37.714-2.286-72-20-106.286-28-55.429-85.143-76.571-144.571-76.571-19.429 0-37.714 8-51.429 21.143-57.143 56-39.429 146.286-73.143 183.429-21.714 22.857-41.714 47.429-61.143 72.571-17.143 22.286-56 73.714-78.286 88.571h-156.571c-40.571 0-73.143 32.571-73.143 73.143v365.714c0 40.571 32.571 73.143 73.143 73.143h164.571c16 0 62.286 17.143 78.857 22.857 82.286 28.571 153.714 50.286 241.714 50.286h64c104 0 178.857-61.714 178.286-168.571v-2.857c22.286-28.571 34.286-65.143 34.286-101.714 0-8-0.571-16.571-1.714-24.571 14.286-25.143 21.714-53.714 21.714-82.286 0-13.143-1.714-26.857-5.143-39.429 18.286-27.429 28-60 28-93.143z" />
<glyph unicode="&#xe907;" glyph-name="thumbs-o-up" horiz-adv-x="878" d="M146.286 182.857c0 20-16.571 36.571-36.571 36.571s-36.571-16.571-36.571-36.571 16.571-36.571 36.571-36.571 36.571 16.571 36.571 36.571zM804.571 512c0 38.857-34.857 73.143-73.143 73.143h-201.143c0 66.857 54.857 115.429 54.857 182.857 0 66.857-13.143 109.714-91.429 109.714-36.571-37.143-17.714-124.571-73.143-182.857-16-16.571-29.714-34.286-44-52-25.714-33.143-93.714-130.857-138.857-130.857h-18.286v-365.714h18.286c32 0 84.571-20.571 115.429-31.429 62.857-21.714 128-41.714 195.429-41.714h69.143c64.571 0 109.714 25.714 109.714 95.429 0 10.857-1.143 21.714-2.857 32 24 13.143 37.143 45.714 37.143 72 0 13.714-3.429 27.429-10.286 39.429 19.429 18.286 30.286 41.143 30.286 68 0 18.286-8 45.143-20 58.857 26.857 0.571 42.857 52 42.857 73.143zM877.714 512.571c0-33.143-9.714-65.714-28-93.143 3.429-12.571 5.143-26.286 5.143-39.429 0-28.571-7.429-57.143-21.714-82.286 1.143-8 1.714-16.571 1.714-24.571 0-36.571-12-73.143-34.286-101.714 1.143-108-72.571-171.429-178.286-171.429h-73.714c-81.143 0-156.571 24-232 50.286-16.571 5.714-62.857 22.857-78.857 22.857h-164.571c-40.571 0-73.143 32.571-73.143 73.143v365.714c0 40.571 32.571 73.143 73.143 73.143h156.571c22.286 14.857 61.143 66.286 78.286 88.571 19.429 25.143 39.429 49.714 61.143 73.143 34.286 36.571 16 126.857 73.143 182.857 13.714 13.143 32 21.143 51.429 21.143 59.429 0 116.571-21.143 144.571-76.571 17.714-34.857 20-68 20-106.286 0-40-10.286-74.286-27.429-109.714h100.571c78.857 0 146.286-66.857 146.286-145.714z" />
<glyph unicode="&#xe908;" glyph-name="thumbs-down" horiz-adv-x="914" d="M146.286 621.714c0-20-16.571-36.571-36.571-36.571-20.571 0-36.571 16.571-36.571 36.571 0 20.571 16 36.571 36.571 36.571 20 0 36.571-16 36.571-36.571zM237.714 329.143v365.714c0 20-16.571 36.571-36.571 36.571h-164.571c-20 0-36.571-16.571-36.571-36.571v-365.714c0-20 16.571-36.571 36.571-36.571h164.571c20 0 36.571 16.571 36.571 36.571zM882.857 414.286c19.429-21.714 31.429-54.857 31.429-85.143-0.571-59.429-50.286-109.714-109.714-109.714h-158.286c4.571-18.286 10.286-24 16.571-36.571 14.857-29.714 32-62.857 32-109.714 0-44 0-146.286-128-146.286-9.714 0-18.857 4-25.714 10.857-24.571 24-31.429 59.429-37.714 93.143-6.857 33.143-13.143 67.429-35.429 89.714-17.714 17.714-37.143 42.286-57.714 68.571-25.143 33.143-80 101.143-101.143 102.857-18.857 1.714-34.857 17.714-34.857 36.571v366.286c0 20 17.143 36 36.571 36.571 20 0.571 54.286 12.571 90.286 25.143 61.714 21.143 138.857 48 220.571 48h73.714c50.286-0.571 88-15.429 112.571-44.571 21.714-25.714 31.429-60.571 28-103.429 14.286-13.714 25.143-32.571 30.857-53.714 6.286-22.857 6.286-45.714 0-66.857 17.143-22.857 25.714-49.714 24.571-78.286 0-8-2.286-25.143-8.571-43.429z" />
<glyph unicode="&#xe909;" glyph-name="thumbs-up" horiz-adv-x="914" d="M146.286 182.857c0 20-16.571 36.571-36.571 36.571-20.571 0-36.571-16.571-36.571-36.571 0-20.571 16-36.571 36.571-36.571 20 0 36.571 16 36.571 36.571zM237.714 475.428v-365.714c0-20-16.571-36.571-36.571-36.571h-164.571c-20 0-36.571 16.571-36.571 36.571v365.714c0 20 16.571 36.571 36.571 36.571h164.571c20 0 36.571-16.571 36.571-36.571zM914.286 475.428c0-30.286-12-62.857-31.429-85.143 6.286-18.286 8.571-35.429 8.571-43.429 1.143-28.571-7.429-55.429-24.571-78.286 6.286-21.143 6.286-44 0-66.857-5.714-21.143-16.571-40-30.857-53.714 3.429-42.857-6.286-77.714-28-103.429-24.571-29.143-62.286-44-112.571-44.571h-73.714c-81.714 0-158.857 26.857-220.571 48-36 12.571-70.286 24.571-90.286 25.143-19.429 0.571-36.571 16.571-36.571 36.571v366.286c0 18.857 16 34.857 34.857 36.571 21.143 1.714 76 69.714 101.143 102.857 20.571 26.286 40 50.857 57.714 68.571 22.286 22.286 28.571 56.571 35.429 89.714 6.286 33.714 13.143 69.143 37.714 93.143 6.857 6.857 16 10.857 25.714 10.857 128 0 128-102.286 128-146.286 0-46.857-16.571-80-32-109.714-6.286-12.571-12-18.286-16.571-36.571h158.286c59.429 0 109.714-50.286 109.714-109.714z" />
<glyph unicode="&#xe981;" glyph-name="uniE981" d="M794 858h-180v25q0 32-22.5 54.5t-53.5 22.5h-103q-32 0-54.5-22.5t-22.5-54.5v-25h-179q-32 0-54.5-22.5t-22.5-54.5v-51q0-25 14.5-45t37.5-28v-644q0-32 22.5-54.5t53.5-22.5h512q32 0 54.5 22.5t22.5 54.5v644q23 8 37 28t14 45v51q0 32-22.5 54.5t-53.5 22.5v0zM410 883q0 11 7.5 18.5t17.5 7.5h103q10 0 17.5-7.5t7.5-18.5v-25h-153v25zM742-13h-512q-10 0-17.5 7.5t-7.5 18.5v640h563v-640q0-11-7.5-18.5t-18.5-7.5zM819 730q0-11-7.5-18.5t-17.5-7.5h-615q-10 0-17.5 7.5t-7.5 18.5v51q0 10 7.5 17.5t17.5 7.5h615q10 0 17.5-7.5t7.5-17.5v-51zM640 602q-11 0-18.5-7.5t-7.5-18.5v-512q0-11 7.5-18.5t18.5-7.5 18.5 7.5 7.5 18.5v512q0 11-7.5 18.5t-18.5 7.5zM486 602q-10 0-17.5-7.5t-7.5-18.5v-512q0-11 7.5-18.5t17.5-7.5q11 0 18.5 7.5t7.5 18.5v512q0 11-7.5 18.5t-18.5 7.5zM333 602q-11 0-18.5-7.5t-7.5-18.5v-512q0-11 7.5-18.5t18.5-7.5q10 0 17.5 7.5t7.5 18.5v512q0 11-7.5 18.5t-17.5 7.5z" />
<glyph unicode="&#xe996;" glyph-name="uniE996" d="M896 653h-819q-32 0-54.5-22.5t-22.5-54.5v-461q0-32 22.5-54.5t54.5-22.5h819q32 0 54.5 22.5t22.5 54.5v461q0 32-22.5 54.5t-54.5 22.5v0zM896 602q1 0 2-0.5t2-0.5l-385-257q-11-7-28.5-7t-28.5 7l-386 257q1 0 2.5 0.5t2.5 0.5h819zM896 90h-819q-11 0-18.5 7.5t-7.5 17.5v439l379-252q12-8 26.5-12t29.5-4q16 0 30.5 4t26.5 12l379 252v-439q0-10-7.5-17.5t-18.5-7.5v0z" />
<glyph unicode="&#xe9a5;" glyph-name="uniE9A5" d="M1017 440q-1 2-42 42.5t-109 88.5q-40 29-80.5 51.5t-79.5 39.5q-50 21-99 31.5t-95 10.5-95-10.5-99-31.5q-39-17-79.5-39.5t-80.5-51.5q-68-48-109-89l-42-42q-7-8-7-17.5t7-17.5q1-2 42-42.5t109-88.5q40-29 80.5-52t79.5-39q50-21 99-31.5t95-10.5 95 10.5 99 31.5q39 16 79.5 39t80.5 52q68 48 109 88.5t42 42.5q7 8 7 17.5t-7 17.5zM644 630q35-29 54-70t19-86q0-43-16-80t-44-65-65.5-44-79.5-16-79.5 16-65.5 44-44 65-16 80q0 45 19 86t54 70q32 11 65 17t67 6 67-6 65-17v0zM835 315q-29-21-65.5-43t-78-39.5-87-29-92.5-11.5-92.5 11.5-87 29-78 39.5-65.5 43q-45 31-78 60.5t-50 46.5q17 18 50 47.5t78 60.5q20 15 44 30t50 29q-13-27-20-56t-7-59q0-53 20-100t55-81.5 81.5-54.5 99.5-20 99.5 20 81.5 54.5 55 81.5 20 100q0 30-7 59t-20 56q26-14 50-29t44-30q45-31 78-60.5t50-47.5q-17-17-50-46.5t-78-60.5v0z" />
<glyph unicode="&#xea6a;" glyph-name="uniEA6A" d="M819-64q-68 0-140 19t-147 57q-34 18-68 39t-67 45.5-65 52-62 57.5-57 62-51.5 65-46 67-38.5 68q-38 75-57 147t-19 140q0 44 30 82.5t48 54.5q25 24 61 46t65 22q14 0 31.5-9.5t39.5-30.5q16-15 34-35t37-44q11-14 49.5-71t38.5-92q0-28-27.5-49.5t-61.5-43.5l-26-16t-23-16q-11-9-14-13.5t-3-5.5q18-45 53-94t79-92.5 92.5-78.5 93.5-53q1 0 5.5 3t13.5 14q8 10 16 23l16 26q21 34 43 61.5t50 27.5q35 0 92-38.5t71-49.5q24-19 44-37t35-34q21-22 30.5-39.5t9.5-31.5q0-29-22-65t-46-61q-16-18-54.5-48.5t-82.5-30.5v0zM204 909q-10 0-35-13t-55-41q-29-27-45.5-53.5t-16.5-46.5q0-129 71.5-265t183-248 247.5-183.5 265-71.5q20 0 46.5 17t53.5 45q27 31 40.5 56t13.5 35q-1 8-24 35t-78 70q-48 36-83 55.5t-45 19.5q-1 0-5.5-3t-13.5-14q-7-10-15-22.5t-16-25.5q-22-35-44-62.5t-51-27.5q-5 0-9.5 0.5t-9.5 2.5q-50 20-103 58t-100.5 85.5-85.5 100.5-58 103q-5 12-2 30.5t26 40.5q13 11 29.5 22t33.5 21q13 8 25.5 16t22.5 16q11 8 14 12.5t3 5.5q0 10-19.5 45t-55.5 83q-43 55-70 78t-35 24v0z" />
<glyph unicode="&#xea7a;" glyph-name="uniEA7A" d="M512-64q-6 0-11 2.5t-9 7.5q-2 3-46 64.5t-97 159.5q-32 58-56.5 115t-42.5 111q-22 69-33.5 133.5t-11.5 123.5q0 63 24 119t66 98 98 66 119 24q64 0 119.5-24t97.5-66 66-98 24-119q0-59-11.5-123.5t-33.5-133.5q-18-54-42.5-111t-56.5-115q-53-98-97-159.5t-46-64.5q-3-5-8.5-7.5t-11.5-2.5v0zM512 909q-53 0-99.5-20t-81.5-55-55-81.5-20-99.5q0-63 12.5-126t32.5-122 44.5-113 48.5-97q34-65 66.5-114.5t51.5-75.5q19 26 51.5 76t67.5 114q23 44 47.5 97.5t44.5 113 32.5 122 12.5 125.5q0 53-20 99.5t-55 81.5-81.5 55-99.5 20zM512 499q-64 0-109 45t-45 109q0 63 45 108t109 45 109-45 45-108q0-64-45-109t-109-45v0zM512 755q-42 0-72-30t-30-72q0-43 30-73t72-30 72 30 30 73q0 42-30 72t-72 30v0z" />
<glyph unicode="&#xea85;" glyph-name="uniEA85" d="M947 858h-128v25q0 11-7.5 18.5t-17.5 7.5q-11 0-18.5-7.5t-7.5-18.5v-25h-512v25q0 11-7.5 18.5t-18.5 7.5q-10 0-17.5-7.5t-7.5-18.5v-25h-128q-32 0-54.5-22.5t-22.5-54.5v-717q0-32 22.5-54.5t54.5-22.5h870q32 0 54.5 22.5t22.5 54.5v717q0 32-22.5 54.5t-54.5 22.5v0zM77 806h128v-76q0-11 7.5-18.5t17.5-7.5q11 0 18.5 7.5t7.5 18.5v76h512v-76q0-11 7.5-18.5t18.5-7.5q10 0 17.5 7.5t7.5 18.5v76h128q11 0 18.5-7.5t7.5-17.5v-128h-922v128q0 10 7.5 17.5t18.5 7.5v0zM947 38h-870q-11 0-18.5 7.5t-7.5 18.5v538h922v-538q0-11-7.5-18.5t-18.5-7.5z" />
<glyph unicode="&#xea86;" glyph-name="uniEA86" d="M947 858h-128v25q0 11-7.5 18.5t-17.5 7.5q-11 0-18.5-7.5t-7.5-18.5v-25h-512v25q0 11-7.5 18.5t-18.5 7.5q-10 0-17.5-7.5t-7.5-18.5v-25h-128q-32 0-54.5-22.5t-22.5-54.5v-717q0-32 22.5-54.5t54.5-22.5h870q32 0 54.5 22.5t22.5 54.5v717q0 32-22.5 54.5t-54.5 22.5v0zM77 806h128v-76q0-11 7.5-18.5t17.5-7.5q11 0 18.5 7.5t7.5 18.5v76h512v-76q0-11 7.5-18.5t18.5-7.5q10 0 17.5 7.5t7.5 18.5v76h128q11 0 18.5-7.5t7.5-17.5v-128h-922v128q0 10 7.5 17.5t18.5 7.5v0zM947 38h-870q-11 0-18.5 7.5t-7.5 18.5v538h922v-538q0-11-7.5-18.5t-18.5-7.5zM435 166q-5 0-9.5 2t-8.5 6l-102 102q-8 8-8 18.5t8 17.5q7 8 17.5 8t18.5-8l84-84 238 238q8 8 18.5 8t17.5-8q8-7 8-18t-8-18l-256-256q-4-4-8.5-6t-9.5-2v0z" />
<glyph unicode="&#xea87;" glyph-name="uniEA87" d="M947 858h-128v25q0 11-7.5 18.5t-17.5 7.5q-11 0-18.5-7.5t-7.5-18.5v-25h-512v25q0 11-7.5 18.5t-18.5 7.5q-10 0-17.5-7.5t-7.5-18.5v-25h-128q-32 0-54.5-22.5t-22.5-54.5v-717q0-32 22.5-54.5t54.5-22.5h870q32 0 54.5 22.5t22.5 54.5v717q0 32-22.5 54.5t-54.5 22.5v0zM77 806h128v-76q0-11 7.5-18.5t17.5-7.5q11 0 18.5 7.5t7.5 18.5v76h512v-76q0-11 7.5-18.5t18.5-7.5q10 0 17.5 7.5t7.5 18.5v76h128q11 0 18.5-7.5t7.5-17.5v-128h-922v128q0 10 7.5 17.5t18.5 7.5v0zM947 38h-870q-11 0-18.5 7.5t-7.5 18.5v538h922v-538q0-11-7.5-18.5t-18.5-7.5zM548 320l136 135q7 8 7 18.5t-7 18.5q-8 7-18.5 7t-18.5-7l-135-136-135 136q-8 7-18.5 7t-18.5-7q-7-8-7-18.5t7-18.5l136-135-136-135q-7-8-7-18.5t7-18.5q4-3 9-5t9-2q5 0 10 2t9 5l135 136 136-136q3-3 8-5t10-2 9.5 2 8.5 5q7 8 7 18.5t-7 18.5l-136 135z" />
<glyph unicode="&#xeaa5;" glyph-name="uniEAA5" d="M691-64h-409q-32 0-54.5 22.5t-22.5 54.5v870q0 32 22.5 54.5t54.5 22.5h409q32 0 54.5-22.5t22.5-54.5v-870q0-32-22.5-54.5t-54.5-22.5zM282 909q-11 0-18.5-7.5t-7.5-18.5v-870q0-11 7.5-18.5t18.5-7.5h409q11 0 18.5 7.5t7.5 18.5v870q0 11-7.5 18.5t-18.5 7.5h-409zM538 806h-103q-10 0-17.5 7.5t-7.5 18.5 7.5 18.5 17.5 7.5h103q10 0 17.5-7.5t7.5-18.5-7.5-18.5-17.5-7.5zM358 832q0-11-7.5-18.5t-17.5-7.5q-11 0-18.5 7.5t-7.5 18.5 7.5 18.5 18.5 7.5q10 0 17.5-7.5t7.5-18.5zM486 38q-31 0-53.5 22.5t-22.5 54.5 22.5 54.5 53.5 22.5q32 0 54.5-22.5t22.5-54.5-22.5-54.5-54.5-22.5v0zM486 141q-10 0-17.5-7.5t-7.5-18.5q0-10 7.5-17.5t17.5-7.5q11 0 18.5 7.5t7.5 17.5q0 11-7.5 18.5t-18.5 7.5z" />
<glyph unicode="&#xeb57;" glyph-name="uniEB57" d="M1013 273v1l-20 102-11 52q-6 30-31 50.5t-55 20.5h-205q-7 0-13-1t-12-3v30q0 32-22.5 54.5t-54.5 22.5h-512q-32 0-54.5-22.5t-22.5-54.5v-410q0-32 22.5-54.5t54.5-22.5h77q0-42 30-72t72-30 72 30 30 72h261q8-22 27.5-36.5t44.5-14.5h40q13-23 36.5-37t51.5-14q29 0 52.5 14t36.5 37h39q32 0 54.5 22.5t22.5 54.5v102q0 23-3 54t-8 53v0zM957 294h-138v52h128l10-52zM256-13q-21 0-36 15t-15 36q0 22 15 37t36 15 36-15 15-37q0-21-15-36t-36-15zM345 90q-14 23-37.5 37t-51.5 14-51.5-14-37.5-37h-90q-11 0-18.5 7.5t-7.5 17.5v410q0 10 7.5 17.5t18.5 7.5h512q10 0 17.5-7.5t7.5-17.5v-435h-269zM819-13q-21 0-36 15t-15 36q0 22 15 37t36 15 36-15 15-37q0-21-15-36t-36-15zM947 38h-25q0 43-30 73t-73 30q-42 0-72-30t-30-73h-26q-10 0-17.5 7.5t-7.5 18.5v358q0 11 7.5 18.5t17.5 7.5h205q12 0 23-9t13-21l4-21h-142q-11 0-18.5-7.5t-7.5-18.5v-102q0-11 7.5-18.5t18.5-7.5h173q1-12 2.5-25.5t2.5-25.5h-25q-10 0-17.5-7.5t-7.5-18.5q0-10 7.5-17.5t17.5-7.5h26v-77q0-11-7.5-18.5t-18.5-7.5v0z" />
<glyph unicode="&#xeb75;" glyph-name="uniEB75" d="M486 38q-47 0-93 5.5t-89 15.5-82.5 24.5-73.5 33.5q-30 16-54.5 35.5t-42.5 40.5v-27q0-10-7.5-17.5t-17.5-7.5q-11 0-18.5 7.5t-7.5 17.5v154q0 11 7.5 18.5t18.5 7.5q10 0 17.5-7.5t7.5-18.5q0-44 31.5-85t90.5-74q31-17 67.5-30.5t76-22.5 82.5-13.5 87-4.5q67 0 130.5 10.5t118.5 31.5q52 19 92 45.5t64 58.5q6 8 16.5 9.5t19.5-4.5q8-7 9.5-17.5t-5.5-18.5q-28-38-74-69t-104.5-52.5-126-33.5-140.5-12v0zM947 499q-10 0-17.5-7.5t-7.5-17.5v-27q-27 31-65.5 57t-88.5 46v128q0 8-4.5 14.5t-11.5 9.5l-256 103q-5 1-10 1t-9-1l-256-103q-7-3-11.5-9.5t-4.5-14.5v-128q-53-21-94-49.5t-67-62.5q-7-8-5.5-18.5t9.5-17.5q4-3 8-4t8-1q6 0 11 2.5t9 7.5q20 25 50.5 47.5t70.5 40.5v-124q0-8 4.5-14.5t11.5-9.5l256-102q2-1 4.5-1.5t4.5-0.5q3 0 5.5 0.5t4.5 1.5l256 102q7 3 11.5 9.5t4.5 14.5v124q32-15 58.5-32.5t46.5-37.5q24-25 36.5-51.5t12.5-53.5q0-11 7.5-18.5t17.5-7.5q11 0 18.5 7.5t7.5 18.5v154q0 10-7.5 17.5t-18.5 7.5v0zM486 753l187-75-187-74-187 74 187 75zM256 641l205-82v-252l-205 82v252zM512 307v252l205 82v-252l-205-82z" />
<glyph unicode="&#xeb86;" glyph-name="uniEB86" d="M830 766q-34 35-74 61.5t-83.5 44.5-90.5 27.5-96 9.5q-48 0-95-9.5t-91-27.5-83.5-44.5-74.5-61.5q-34-34-60.5-74t-44.5-83.5-27.5-90.5-9.5-96q0-48 9.5-95t27.5-90.5 44.5-83.5 60.5-74q35-35 74.5-61.5t83.5-44.5 91-27.5 95-9.5q49 0 96 9.5t90.5 27.5 83.5 44.5 74 61.5q35 34 61.5 74t44.5 83.5 27.5 90.5 9.5 95q0 49-9.5 96t-27.5 90.5-44.5 83.5-61.5 74v0zM768 448q-2 41-7 81t-13 77l26-12t26-13q50-28 80.5-62t38.5-71h-151zM716 448h-204v204q47-1 92-8t86-18q11-41 18-86t8-92zM512 704v151q37-8 71-38.5t62-80.5q7-12 13-25.5t12-26.5q-38 8-77.5 13t-80.5 7v0zM461 855v-151q-41-2-81-7t-77-13q6 13 12 26.5t13 25.5q28 50 62 80.5t71 38.5v0zM461 652v-204h-205q2 47 8.5 92t18.5 86q41 11 86 18t92 8v0zM205 448h-151q8 37 38.5 71t80.5 62q12 7 25 13t27 12q-9-38-14-77.5t-6-80.5v0zM205 397q1-41 6-81t14-77q-14 6-27 12t-25 13q-50 28-80.5 62t-38.5 71h151zM256 397h205v-205q-47 2-92 8.5t-86 18.5q-12 41-18.5 86t-8.5 92zM461 141v-151q-37 8-71 38.5t-62 80.5q-7 12-13 25t-12 27q37-9 77-14t81-6v0zM512-10v151q41 1 81 6t77 14q-6-14-12-27t-13-25q-28-50-62-80.5t-71-38.5v0zM512 192v205h204q-1-47-8-92t-18-86q-41-12-86-18.5t-92-8.5zM768 397h151q-8-37-38.5-71t-80.5-62q-12-7-25.5-13t-26.5-12q8 37 13 77t7 81v0zM893 579q-15 12-32 24t-36 23q-22 12-45.5 22t-48.5 19q-9 25-19 48.5t-22 45.5q-11 19-23 36t-24 32q43-17 81-42t70-57 57-70 42-81zM330 829q-13-15-24.5-32t-22.5-36q-12-22-22-45.5t-19-48.5q-25-9-48.5-19t-45.5-22q-19-11-36-23t-32-24q17 43 42 81t57 70 70 57 81 42zM80 266q15-13 32-24.5t36-22.5q22-12 45.5-22t48.5-19q9-25 19-48.5t22-45.5q11-19 22.5-36t24.5-32q-43 17-81 42t-70 57-57 70-42 81v0zM643 16q12 15 24 32t23 36q12 22 22 45.5t19 48.5q25 9 48.5 19t45.5 22q19 11 36 22.5t32 24.5q-17-43-42-81t-57-70-70-57-81-42z" />
<glyph unicode="&#xebea;" glyph-name="uniEBEA" d="M775 589q-6 9-16 11.5t-19-2.5l-252-145-197 137q-8 6-18.5 4.5t-16.5-10.5-4.5-19.5 10.5-16.5l210-147h0.5t0.5-1h2v-1h2l1-1h2q1 0 1-0.5v-0.5h11v1h3q1 1 1.5 1t1.5 1v0 0h1l266 154q9 5 12 15.5t-2 19.5v0zM837 82q0 1-0.5 1t-0.5 1q33 34 58.5 73.5t43 82.5 26.5 89 9 93q0 49-9.5 96t-27.5 90.5-44.5 83.5-61.5 74q-34 35-74 61.5t-83.5 44.5-90.5 27.5-96 9.5q-48 0-95-9.5t-90.5-27.5-83.5-44.5-74-61.5q-35-34-61.5-74t-44.5-83.5-27.5-90.5-9.5-96q0-47 9-93t26.5-89 43-82.5 58.5-73.5q0-1-0.5-1t-0.5-1l-103-102q-7-8-7-18.5t7-17.5q4-4 8.5-6t9.5-2 10 2 8 6l106 105q32-27 69-48.5t76.5-35.5 81-21.5 85.5-7.5q43 0 85 7.5t81.5 21.5 76 35.5 69.5 48.5q0-1 1-1.5t1-1.5l103-102q3-4 8-6t10-2 9.5 2 8.5 6q7 7 7 17.5t-7 18.5l-102 102h-1zM51 422q0 90 34.5 169.5t93.5 138.5 138 93.5 169 34.5 169.5-34.5 138.5-93.5 93.5-138.5 34.5-169.5-34.5-169-93.5-138-138.5-93.5-169.5-34.5-169 34.5-138 93.5-93.5 138-34.5 169v0zM29 724q-9 0-16.5 6t-8.5 15q-2 9-3 18t-1 18q0 74 52.5 126.5t126.5 52.5q16 0 31.5-2.5t30.5-8.5q10-4 14.5-13.5t0.5-19.5-13.5-14.5-19.5-0.5-21 6-23 2q-53 0-90.5-37.5t-37.5-90.5q0-7 0.5-13.5t2.5-12.5q2-10-4-19t-16-11q-2 0-3-0.5t-2-0.5v0zM944 724h-2.5t-2.5 1q-10 2-16 11t-4 19q1 6 2 12.5t1 13.5q0 53-37.5 90.5t-90.5 37.5q-12 0-23-2t-21-6-20 0.5-13 14.5q-4 10 0.5 19.5t14.5 13.5q15 5 30.5 8t31.5 3q74 0 126.5-52.5t52.5-126.5q0-9-1-18t-3-18-9-15-16-6v0z" />
<glyph unicode="&#xec17;" glyph-name="uniEC17" d="M547 295q-36 0-71 13.5t-62 41.5q-8 7-8 17.5t8 18.5q7 7 17.5 7t18.5-7q40-40 97-40t97 40l186 186q40 40 40 97t-40 97-97 40-97-40l-157-157q-8-7-18.5-7t-17.5 7q-8 8-8 18.5t8 17.5l157 157q55 56 133 56t133-56q55-55 55-133t-55-133l-186-186q-27-28-62-41.5t-71-13.5v0zM240-13q-36 0-71 14t-63 41q-55 56-55 134t55 133l187 186q55 55 133 55t133-55q8-7 8-18t-8-18q-7-7-18-7t-18 7q-40 40-97 40t-97-40l-186-186q-41-40-41-97t41-97q40-41 97-41t97 41l157 157q7 7 18 7t18-7q8-8 8-18.5t-8-17.5l-157-158q-28-27-62.5-41t-70.5-14v0z" />
<glyph unicode="&#xec22;" glyph-name="uniEC22" d="M966-21l-304 332q51 54 78.5 122t27.5 143q0 77-29 147t-83 125q-55 54-125 83t-147 29-147-29-124-83q-55-55-84-125t-29-147 29-147 84-125q54-54 124-83t147-29q66 0 127.5 21.5t112.5 62.5l304-332q4-4 9-6t10-2 9.5 1.5 8.5 5.5q7 7 7.5 17.5t-6.5 18.5v0zM51 576q0 69 26.5 129.5t71.5 105.5 105.5 71.5 129.5 26.5 129.5-26.5 105.5-71.5 71.5-105.5 26.5-129.5-26.5-129.5-71.5-105.5-105.5-71.5-129.5-26.5-129.5 26.5-105.5 71.5-71.5 105.5-26.5 129.5v0z" />
<glyph unicode="&#xec2a;" glyph-name="uniEC2A" d="M548 422l289 289q8 8 8 18.5t-8 18.5q-7 7-17.5 7t-18.5-7l-289-289-289 289q-8 7-18.5 7t-17.5-7q-8-8-8-18.5t8-18.5l289-289-289-289q-8-7-8-17.5t8-18.5q3-4 8-5.5t10-1.5 9.5 1.5 8.5 5.5l289 289 289-289q4-4 8.5-5.5t9.5-1.5 10 1.5 8 5.5q8 8 8 18.5t-8 17.5l-289 289z" />
<glyph unicode="&#xec2b;" glyph-name="uniEC2B" d="M896 653h-768q-11 0-18.5 7.5t-7.5 17.5q0 11 7.5 18.5t18.5 7.5h768q11 0 18.5-7.5t7.5-18.5q0-10-7.5-17.5t-18.5-7.5zM896 397h-768q-11 0-18.5 7.5t-7.5 17.5q0 11 7.5 18.5t18.5 7.5h768q11 0 18.5-7.5t7.5-18.5q0-10-7.5-17.5t-18.5-7.5zM896 141h-768q-11 0-18.5 7.5t-7.5 17.5q0 11 7.5 18.5t18.5 7.5h768q11 0 18.5-7.5t7.5-18.5q0-10-7.5-17.5t-18.5-7.5z" />
<glyph unicode="&#xec34;" glyph-name="uniEC34" d="M282 64q-5 0-10 2t-9 5l-256 256q-7 8-7 18.5t7 18.5q8 7 18.5 7t18.5-7l238-238 698 698q8 8 18.5 8t17.5-8q8-7 8-17.5t-8-18.5l-716-717q-4-3-9-5t-10-2h1z" />
<glyph unicode="&#xec35;" glyph-name="uniEC35" d="M548 422l443 443q7 8 7 18.5t-7 17.5q-8 8-18.5 8t-17.5-8l-443-442-443 442q-7 8-17.5 8t-18.5-8q-7-7-7-17.5t7-18.5l443-443-443-442q-7-8-7-18.5t7-17.5q4-4 8.5-6t9.5-2 10 2 8 6l443 442 443-442q3-4 8-6t10-2 9.5 2 8.5 6q7 7 7 17.5t-7 18.5l-443 442z" />
<glyph unicode="&#xec36;" glyph-name="uniEC36" d="M947 448h-435v435q0 11-7.5 18.5t-18.5 7.5q-10 0-17.5-7.5t-7.5-18.5v-435h-435q-11 0-18.5-7.5t-7.5-18.5q0-10 7.5-17.5t18.5-7.5h435v-435q0-11 7.5-18.5t17.5-7.5q11 0 18.5 7.5t7.5 18.5v435h435q11 0 18.5 7.5t7.5 17.5q0 11-7.5 18.5t-18.5 7.5z" />
<glyph unicode="&#xec37;" glyph-name="uniEC37" d="M947 397h-921q-11 0-18.5 7.5t-7.5 17.5q0 11 7.5 18.5t18.5 7.5h921q11 0 18.5-7.5t7.5-18.5q0-10-7.5-17.5t-18.5-7.5z" />
<glyph unicode="&#xec39;" glyph-name="uniEC39" d="M0 192q0-5 2-9.5t5-8.5q8-8 18.5-8t18.5 8l442 443 443-443q8-8 18.5-8t17.5 8q8 7 8 18t-8 18l-461 461q-7 7-17.5 7t-18.5-7l-461-461q-3-4-5-8.5t-2-9.5v0z" />
<glyph unicode="&#xec3a;" glyph-name="uniEC3A" d="M0 653q0 5 2 9.5t5 8.5q8 7 18.5 7t18.5-7l442-443 443 443q8 7 18.5 7t17.5-7q8-8 8-18.5t-8-17.5l-461-461q-7-8-17.5-8t-18.5 8l-461 461q-3 3-5 8t-2 10v0z" />
<glyph unicode="&#xec3b;" glyph-name="uniEC3B" d="M717-64q5 0 9.5 2t8.5 5q7 8 7 18.5t-7 18.5l-443 442 443 443q7 8 7 18.5t-7 17.5q-8 8-18.5 8t-17.5-8l-461-461q-8-7-8-17.5t8-18.5l461-461q3-3 8-5t10-2v0z" />
<glyph unicode="&#xec3c;" glyph-name="uniEC3C" d="M256-64q-5 0-9.5 2t-8.5 5q-8 8-8 18.5t8 18.5l443 442-443 443q-8 8-8 18.5t8 17.5q7 8 18 8t18-8l461-461q7-7 7-17.5t-7-18.5l-461-461q-4-3-8.5-5t-9.5-2v0z" />
<glyph unicode="&#xec43;" glyph-name="uniEC43" d="M33 441l307 307q8 7 18.5 7t17.5-7q8-8 8-18.5t-8-17.5l-263-264h834q11 0 18.5-7.5t7.5-18.5q0-10-7.5-17.5t-18.5-7.5h-834l263-264q8-7 8-17.5t-8-18.5q-3-4-8-5.5t-10-1.5-9.5 1.5-8.5 5.5l-307 307q-7 8-7 18.5t7 18.5v0z" />
<glyph unicode="&#xec44;" glyph-name="uniEC44" d="M991 441l-307 307q-8 7-18.5 7t-17.5-7q-8-8-8-18.5t8-17.5l263-264h-834q-11 0-18.5-7.5t-7.5-18.5q0-10 7.5-17.5t18.5-7.5h834l-263-264q-8-7-8-17.5t8-18.5q3-4 8-5.5t10-1.5 9.5 1.5 8.5 5.5l307 307q7 8 7 18.5t-7 18.5v0z" />
<glyph unicode="&#xec55;" glyph-name="uniEC55" d="M947-13h-921q-7 0-13 3.5t-10 9.5q-3 6-3 12.5t3 12.5l461 820q3 6 9 9.5t13 3.5 13-3.5 10-9.5l461-820q3-6 3-12.5t-4-12.5q-3-6-9-9.5t-13-3.5v0zM69 38h834l-417 742-417-742zM486 243q-10 0-17.5 7.5t-7.5 18.5v256q0 10 7.5 17.5t17.5 7.5q11 0 18.5-7.5t7.5-17.5v-256q0-11-7.5-18.5t-18.5-7.5zM486 90q-10 0-17.5 7.5t-7.5 17.5v51q0 11 7.5 18.5t17.5 7.5q11 0 18.5-7.5t7.5-18.5v-51q0-10-7.5-17.5t-18.5-7.5z" />
<glyph unicode="&#xec56;" glyph-name="uniEC56" d="M830 766q-34 35-74 61.5t-83.5 44.5-90.5 27.5-96 9.5q-48 0-95-9.5t-91-27.5-83.5-44.5-74.5-61.5q-34-34-60.5-74t-44.5-83.5-27.5-90.5-9.5-96q0-48 9.5-95t27.5-90.5 44.5-83.5 60.5-75q35-34 74.5-60.5t83.5-44.5 91-27.5 95-9.5q49 0 96 9.5t90.5 27.5 83.5 44.5 74 60.5q35 35 61.5 74.5t44.5 83.5 27.5 91 9.5 95q0 49-9.5 96t-27.5 90.5-44.5 83.5-61.5 74v0zM486-13q-90 0-169 34.5t-138 93.5-93.5 138-34.5 169 34.5 169.5 93.5 138.5 138 93.5 169 34.5 169.5-34.5 138.5-93.5 93.5-138.5 34.5-169.5-34.5-169-93.5-138-138.5-93.5-169.5-34.5v0zM486 38v0 0q-10 0-17.5 7.5t-7.5 18.5v51q0 11 7.5 18.5t17.5 7.5v0q11 0 18.5-7.5t7.5-18.5v-51q0-11-7.5-18.5t-18.5-7.5zM486 192q-10 0-17.5 7.5t-7.5 18.5v512q0 10 7.5 17.5t17.5 7.5q11 0 18.5-7.5t7.5-17.5v-512q0-11-7.5-18.5t-18.5-7.5z" />
<glyph unicode="&#xf12e;" glyph-name="bar-chart" d="M672 832h256v-768h-256v768zM736 768v-640h128v640h-128zM96 640h256v-576h-256v576zM160 576v-448h128v448h-128zM384 448h256v-384h-256v384zM448 384v-256h128v256h-128z" />
<glyph unicode="&#xf155;" glyph-name="building-o" d="M128 864h768v-832h-352v128h-64v-128h-352v832zM192 800v-704h224v128h192v-128h224v704h-640zM256 736h128v-64h-128v64zM448 736h128v-64h-128v64zM640 736h128v-64h-128v64zM256 608h128v-64h-128v64zM448 608h128v-64h-128v64zM640 608h128v-64h-128v64zM256 480h128v-64h-128v64zM448 480h128v-64h-128v64zM640 480h128v-64h-128v64zM256 352h128v-64h-128v64zM448 352h128v-64h-128v64zM640 352h128v-64h-128v64zM256 224h128v-64h-128v64zM640 224h128v-64h-128v64z" />
<glyph unicode="&#xf15d;" glyph-name="calendar-check-o" d="M288 800h64v-32h320v32h64v-32h128v-704h-704v704h128v32zM224 704v-64h576v64h-64v-32h-64v32h-320v-32h-64v32h-64zM224 576v-448h576v448h-576zM648 504l48-48-192-192-24-20-24 20-96 96 48 48 72-74z" />
<glyph unicode="&#xf16d;" glyph-name="cart-arrow-down" d="M128 736h72q22 0 39-13t21-35l84-336h400l76 288h68l-84-304q-4-22-21-35t-39-13h-400q-22 0-39 13t-21 35l-84 336h-72q-14 0-23 9t-9 23 9 23 23 9zM704 288q40 0 68-28t28-68-28-68-68-28-68 28-28 68 28 68 68 28zM416 288q40 0 68-28t28-68-28-68-68-28-68 28-28 68 28 68 68 28zM512 736h64v-160h96l-128-128-128 128h96v160zM416 224q-32 0-32-32t32-32 32 32-32 32zM704 224q-32 0-32-32t32-32 32 32-32 32z" />
<glyph unicode="&#xf16e;" glyph-name="cart-plus" d="M128 736h72q22 0 39-13t21-35l84-336h400l76 288h68l-84-304q-4-22-21-35t-39-13h-400q-22 0-39 13t-21 35l-84 336h-72q-14 0-23 9t-9 23 9 23 23 9zM704 288q40 0 68-28t28-68-28-68-68-28-68 28-28 68 28 68 68 28zM416 288q40 0 68-28t28-68-28-68-68-28-68 28-28 68 28 68 68 28zM512 736h64v-96h96v-64h-96v-96h-64v96h-96v64h96v96zM416 224q-32 0-32-32t32-32 32 32-32 32zM704 224q-32 0-32-32t32-32 32 32-32 32z" />
<glyph unicode="&#xf17c;" glyph-name="check-circle" d="M512 864q170 0 288-118l-44-46q-100 100-244 100-146 0-249-103t-103-249 103-249 249-103 249 103 103 249q0 40-10 80l52 52q22-58 22-132 0-172-122-294t-294-122-294 122-122 294 122 294 294 122zM872 728l48-48-384-384-24-20-24 20-160 160 48 48 136-138z" />
<glyph unicode="&#xf18a;" glyph-name="circle" d="M512 832q158 0 271-113t113-271-113-271-271-113-271 113-113 271 113 271 271 113zM512 768q-132 0-226-94t-94-226 94-226 226-94 226 94 94 226-94 226-226 94z" />
<glyph unicode="&#xf18f;" glyph-name="clock-o" d="M512 832q158 0 271-113t113-271-113-271-271-113-271 113-113 271 113 271 271 113zM512 768q-132 0-226-94t-94-226 94-226 226-94 226 94 94 226-94 226-226 94zM480 704h64v-224h160v-64h-224v288z" />
<glyph unicode="&#xf1bc;" glyph-name="dot-circle-o" d="M512 832q158 0 271-113t113-271-113-271-271-113-271 113-113 271 113 271 271 113zM512 768q-132 0-226-94t-94-226 94-226 226-94 226 94 94 226-94 226-226 94zM512 544q40 0 68-28t28-68-28-68-68-28-68 28-28 68 28 68 68 28z" />
<glyph unicode="&#xf1c7;" glyph-name="envelope-o" d="M96 704h832v-576h-832v576zM234 640l278-184 278 184h-556zM160 612v-420h704v420l-334-224-18-10-18 10z" />
<glyph unicode="&#xf1d7;" glyph-name="facebook" d="M224 800h576q26 0 45-19t19-45v-576q0-26-19-45t-45-19h-576q-26 0-45 19t-19 45v576q0 26 19 45t45 19zM224 736v-576h310v216h-84v96h84v72q0 60 34 94t90 34q52 0 74-4v-88h-52q-26 0-36-11t-10-35v-62h94l-12-96h-82v-216h166v576h-576z" />
<glyph unicode="&#xf1df;" glyph-name="file" d="M160 864h428l12-8 192-192 8-12v-620h-640v832zM224 800v-704h512v512h-192v192h-320zM608 754v-82h82z" />
<glyph unicode="&#xf1ec;" glyph-name="file-text" d="M160 864h428l12-8 192-192 8-12v-620h-640v832zM224 800v-704h512v512h-192v192h-320zM608 754v-82h82zM320 544h320v-64h-320v64zM320 416h320v-64h-320v64zM320 288h320v-64h-320v64z" />
<glyph unicode="&#xf21b;" glyph-name="google-plus" d="M408 832h200l-62-36h-62q10-6 22-17t29-45 17-74q0-42-16-74t-35-46-35-33-16-39 22-41 47-39 47-54 22-80q0-66-63-128t-195-62q-114 0-162 48t-48 96q0 82 83 126t185 42q-2 4-8 13l-10 15t-7 18-3 24 8 38h-32q-78 0-122 49t-44 109q0 24 9 51t32 61 74 56 123 22zM344 800q-48 0-68-37t-20-71q0-72 38-126t90-54q84 0 84 100 0 20-6 48t-18 61-38 56-62 23zM760 608h64v-96h96v-64h-96v-96h-64v96h-96v64h96v96zM392 348q-58 0-99-13t-58-34-24-38-7-35q0-64 56-93t118-29q82 0 113 36t33 74q0 18-8 36t-22 33-25 24-31 23-22 16h-24z" />
<glyph unicode="&#xf27d;" glyph-name="map-marker" d="M512 864q120 0 204-84t84-204q0-56-44-152-32-78-88-172-28-50-61-102t-51-78l-18-26-26-38-26 38q-66 94-130 206-56 94-88 172-44 96-44 152 0 120 84 204t204 84zM512 800q-94 0-159-65t-65-159q0-42 36-128 30-66 88-164 50-86 100-160 50 74 100 160 58 98 88 164 36 86 36 128 0 94-65 159t-159 65zM512 640q26 0 45-19t19-45-19-45-45-19-45 19-19 45 19 45 45 19z" />
<glyph unicode="&#xf294;" glyph-name="money" d="M894 808l24-136h-66l-10 62-362-62h-380zM64 640h896v-512h-896v512zM222 576q2-10 2-16 0-34-23-57t-57-23q-6 0-16 2v-196q10 2 16 2 34 0 57-23t23-57q0-6-2-16h580q-2 10-2 16 0 34 23 57t57 23q6 0 16-2v196q-10-2-16-2-34 0-57 23t-23 57q0 6 2 16h-580zM512 544q66 0 113-47t47-113-47-113-113-47-113 47-47 113 47 113 113 47zM512 480q-40 0-68-28t-28-68 28-68 68-28 68 28 28 68-28 68-68 28z" />
<glyph unicode="&#xf2ba;" glyph-name="pinterest" d="M512 832q160 0 272-112t112-272-112-272-272-112q-58 0-114 18 38 60 48 100l24 92q10-20 35-33t53-13q86 0 143 70t57 170q0 94-69 158t-169 64q-118 0-186-68t-68-164q0-46 22-90t56-60q12-4 14 6 0 2 4 19t6 25q2 6-2 10-30 34-30 88 0 68 48 117t126 49q72 0 116-43t44-113q0-76-34-126t-86-50q-28 0-46 21t-10 49q4 16 12 44t13 49 5 35q0 24-12 39t-36 15q-28 0-49-27t-21-67q0-14 3-29t7-21l2-6q-38-162-44-192-10-38-2-110-108 44-176 141t-68 217q0 160 112 272t272 112z" />
<glyph unicode="&#xf2fa;" glyph-name="shopping-cart" d="M152 736h72q22 0 39-13t21-35l84-336h368l60 224h-436l-16 64h536l-84-304q-4-22-21-35t-39-13h-368q-22 0-39 13t-21 35l-84 336h-72q-14 0-23 9t-9 23 9 23 23 9zM696 288q40 0 68-28t28-68-28-68-68-28-68 28-28 68 28 68 68 28zM408 288q40 0 68-28t28-68-28-68-68-28-68 28-28 68 28 68 68 28zM408 224q-32 0-32-32t32-32 32 32-32 32zM696 224q-32 0-32-32t32-32 32 32-32 32z" />
<glyph unicode="&#xf318;" glyph-name="star" d="M970 558l-242-218 68-320-284 162-284-162 68 320-242 218 324 34 134 300 134-300z" />
<glyph unicode="&#xf31a;" glyph-name="star-half-o" d="M512 884l28-64 104-236 256-24 72-8-56-48-188-172 52-250 16-70-64 36-220 128-220-128-64-36 16 70 52 250-188 172-56 48 72 8 256 24 104 236zM512 728v-480l16-8 176-100-44 196-4 20 16 12 150 136-220 22-8 16z" />
<glyph unicode="&#xf31b;" glyph-name="star-o" d="M512 892l28-66 104-234 256-26 72-8-56-48-188-170 52-252 16-68-64 36-220 128-220-128-64-36 16 68 52 252-188 170-56 48 72 8 256 26 104 234zM512 736l-82-186-8-18h-18l-200-22 148-134 16-14-4-18-44-196 176 100 16 8 16-8 176-100-44 196-4 18 16 14 148 134-200 22h-18l-8 18z" />
<glyph unicode="&#xf352;" glyph-name="truck" d="M0 832h576v-128h172l12-8 192-192 8-12v-332h-100q-12-42-46-69t-78-27-78 27-46 69h-264q-12-42-46-69t-78-27-78 27-46 69h-100v672zM64 768v-544h36q12 42 46 69t78 27 78-27 46-69h164v544h-448zM576 640v-416h36q12 42 46 69t78 27 78-27 46-69h36v242l-174 174h-146zM224 256q-26 0-45-19t-19-45 19-45 45-19 45 19 19 45-19 45-45 19zM736 256q-26 0-45-19t-19-45 19-45 45-19 45 19 19 45-19 45-45 19z" />
<glyph unicode="&#xf359;" glyph-name="twitter" d="M896 686q-32-48-78-82v-20q0-80-30-158t-85-144-142-106-191-40q-132 0-242 70 18-2 38-2 110 0 196 68-52 0-92 31t-56 79q14-4 30-4 22 0 42 6-56 12-92 55t-36 99v2q34-18 72-20-70 48-70 132 0 42 22 80 126-156 324-166-4 18-4 36 0 66 46 112t112 46q68 0 114-50 54 10 100 38-18-56-68-86 46 6 90 24z" />
<glyph unicode="&#xf364;" glyph-name="user" d="M480 800q92 0 158-66t66-158q0-56-27-106t-73-80q88-38 142-117t54-177h-64q0 106-75 181t-181 75-181-75-75-181h-64q0 98 54 177t142 117q-46 30-73 80t-27 106q0 92 66 158t158 66zM480 736q-66 0-113-47t-47-113 47-113 113-47 113 47 47 113-47 113-113 47z" />
<glyph unicode="&#xf37a;" glyph-name="whatsapp" d="M784 720q112-112 112-270t-112-270-270-112v0q-98 0-184 46l-202-54 54 198q-50 90-50 192 0 158 112 270t270 112 270-112zM514 132q132 0 225 93t93 225-93 225-225 93-225-93-93-225q0-92 48-170l8-12-32-116 120 30 12-6q74-44 162-44zM688 370q16-8 18-12 6-10-6-44-4-16-26-30t-38-16q-32-6-60 4-30 8-54 20-82 34-164 144-38 52-38 98 0 44 32 80 12 12 26 12h18q16 0 22-16 2-6 10-25t13-32 7-15q4-8 0-16-6-12-10-16l-14-16q-10-10-4-20 22-40 54-66 22-22 76-48 14-6 20 2 24 26 32 38 6 10 20 4 12-4 66-30z" />
</font>
</defs>
</svg>
